<svg width="32" height="50" viewBox="0 0 32 50" fill="none" xmlns="http://www.w3.org/2000/svg">
<g clip-path="url(#clip0_2_116)">
<path d="M4.371 50.0001V47.1021H14.587V40.9301C6.391 40.1131 0.038 33.2721 0 24.9381V24.9341H2.881C2.895 29.3311 5.074 33.2161 8.407 35.5811L8.448 35.6081C10.52 37.1531 13.131 38.0821 15.959 38.0821C16.196 38.0821 16.432 38.0751 16.667 38.0631L16.634 38.0641C23.627 37.7251 29.177 32.0041 29.24 24.9731V24.9671H32.138C32.138 25.0001 32.138 25.0391 32.138 25.0781C32.138 29.2281 30.531 33.0031 27.905 35.8151L27.913 35.8061C25.306 38.6561 21.696 40.5501 17.645 40.9261L17.582 40.9311V47.0211H27.831V49.9681L4.371 50.0001Z" fill="#CCBA8D"/>
<path d="M26.326 11.7059V16.1099H19.04V19.0239H26.309V23.4119H19.056V26.3589H26.194C25.475 31.3689 21.212 35.1769 16.06 35.1769C10.908 35.1769 6.64499 31.3689 5.93199 26.4139L5.92599 26.3589H13.097V23.4609H5.86099V19.0569H13.097V16.1259H5.86099V11.7549H13.097V8.79188H5.95899C6.72399 3.83188 10.963 0.0778809 16.078 0.0778809C21.187 0.0778809 25.422 3.82288 26.187 8.71788L26.194 8.77588H19.039V11.7069L26.326 11.7059Z" fill="#BDAE82"/>
</g>
<defs>
<clipPath id="clip0_2_116">
<rect width="32" height="50" fill="white"/>
</clipPath>
</defs>
</svg>
