<svg width="62" height="50" viewBox="0 0 62 50" fill="none" xmlns="http://www.w3.org/2000/svg">
<g clip-path="url(#clip0_2_133)">
<path d="M30.897 50.0359C22.766 50.0359 14.635 50.0359 6.505 50.0359C6.478 50.0359 6.447 50.0369 6.415 50.0369C2.872 50.0369 0 47.1649 0 43.6219C0 43.5899 0 43.5589 0.001 43.5269V43.5319C0.0723333 34.0966 0.0723333 24.6552 0.001 15.2079C0.001 15.1969 0.001 15.1849 0.001 15.1719C0.001 11.6189 2.881 8.73891 6.434 8.73891C22.767 8.73891 39.082 8.73891 55.415 8.73891C55.497 8.73491 55.593 8.73291 55.69 8.73291C59.085 8.73291 61.837 11.4849 61.837 14.8799C61.837 14.9829 61.834 15.0849 61.829 15.1859L61.83 15.1719V43.5319C61.837 43.6409 61.841 43.7679 61.841 43.8969C61.841 47.2919 59.089 50.0439 55.694 50.0439C55.59 50.0439 55.486 50.0409 55.383 50.0359L55.398 50.0369L30.897 50.0359ZM30.897 43.8709C30.939 43.8709 30.99 43.8719 31.04 43.8719C39.014 43.8719 45.479 37.4069 45.479 29.4329C45.479 21.4589 39.014 14.9939 31.04 14.9939C23.078 14.9939 16.622 21.4379 16.601 29.3939V29.3959C16.65 37.2809 22.988 43.6689 30.849 43.7989H30.861L30.897 43.8709ZM12.384 19.0489C12.345 17.9279 11.436 17.0309 10.313 17.0119H10.311C9.176 17.0119 8.256 17.9319 8.256 19.0669C8.256 20.2019 9.176 21.1219 10.311 21.1219C11.448 21.1019 12.364 20.1859 12.384 19.0509V19.0489Z" fill="#CCBA8D"/>
<path d="M42.28 6.16506H19.532C19.889 4.73506 20.211 3.35906 20.568 1.98306C20.646 0.853064 21.582 -0.0339355 22.725 -0.0339355C22.859 -0.0339355 22.991 -0.0219355 23.118 0.00206446L23.105 6.4455e-05H38.938C39.008 -0.00793555 39.089 -0.0129355 39.17 -0.0129355C40.219 -0.0129355 41.085 0.766065 41.224 1.77606L41.225 1.78706C41.565 3.07406 41.886 4.36006 42.208 5.64706C42.244 5.80806 42.244 5.96906 42.279 6.16506H42.28Z" fill="#CCBA8D"/>
<path d="M30.861 43.7989C22.902 43.7779 16.459 37.3219 16.459 29.3599C16.459 21.3859 22.924 14.9209 30.898 14.9209C38.872 14.9209 45.337 21.3859 45.337 29.3599C45.337 29.4099 45.337 29.4599 45.336 29.5109V29.5029C45.215 37.4119 38.785 43.7799 30.863 43.7989H30.861V43.7989ZM30.861 39.6709C36.556 39.6709 41.172 35.0549 41.172 29.3599C41.172 23.6649 36.556 19.0489 30.861 19.0489C25.179 19.0489 20.57 23.6449 20.55 29.3219V29.3239C20.55 29.3449 20.55 29.3709 20.55 29.3959C20.55 35.0709 25.15 39.6709 30.825 39.6709C30.863 39.6709 30.901 39.6709 30.938 39.6699H30.932L30.861 39.6709Z" fill="#CCBA8D"/>
<path d="M12.384 19.049C12.365 20.174 11.468 21.083 10.35 21.122H10.346C9.21102 21.122 8.29102 20.202 8.29102 19.067C8.29102 17.932 9.21102 17.012 10.346 17.012C11.455 17.05 12.345 17.94 12.383 19.046V19.05L12.384 19.049Z" fill="#BDAE82"/>
<path d="M31.129 21.1401C35.507 21.2841 39.019 24.8011 39.152 29.1691V29.1821C39.154 29.2201 39.156 29.2651 39.156 29.3111C39.156 30.4431 38.272 31.3681 37.156 31.4341H37.15C37.145 31.4341 37.138 31.4341 37.132 31.4341C35.987 31.4341 35.059 30.5061 35.059 29.3611C35.02 27.1091 33.215 25.2921 30.972 25.2331H30.966C30.949 25.2331 30.93 25.2341 30.91 25.2341C29.785 25.2341 28.873 24.3221 28.873 23.1971C28.873 23.1651 28.874 23.1341 28.875 23.1021V23.1061C28.929 22.0051 29.836 21.1321 30.946 21.1321C31.01 21.1321 31.073 21.1351 31.135 21.1401L31.127 21.1391L31.129 21.1401Z" fill="#CCBA8D"/>
</g>
<defs>
<clipPath id="clip0_2_133">
<rect width="62" height="50" fill="white"/>
</clipPath>
</defs>
</svg>
