<svg width="28" height="28" viewBox="0 0 28 28" fill="none" xmlns="http://www.w3.org/2000/svg">
<path d="M15.3601 0.666992C17.7601 0.666992 18.2671 0.693992 19.4931 0.746992C20.9061 0.813992 21.8801 1.03999 22.7201 1.37399C23.6001 1.70699 24.3471 2.17399 25.0801 2.90699C25.8271 3.63999 26.2801 4.38699 26.6271 5.26699C26.9601 6.10699 27.1741 7.07999 27.2401 8.50699C27.3071 9.77399 27.3201 10.267 27.3201 12.934V15.067C27.3201 17.734 27.3071 18.227 27.2401 19.494C27.2171 20.659 26.9941 21.764 26.6041 22.788L26.6261 22.721C26.2791 23.601 25.8261 24.348 25.0931 25.081C24.3461 25.828 23.6001 26.281 22.7201 26.628C21.8801 26.961 20.9071 27.175 19.4931 27.241C18.2261 27.308 17.7201 27.321 15.0531 27.321H12.9331C10.2661 27.321 9.77309 27.308 8.49309 27.241C7.32809 27.218 6.22309 26.995 5.19909 26.605L5.26609 26.627C4.34309 26.274 3.55609 25.753 2.90709 25.094L2.90609 25.093C2.24009 24.441 1.71409 23.649 1.37409 22.764L1.35909 22.719C0.992086 21.763 0.769086 20.657 0.746086 19.502V19.492C0.693086 18.45 0.663086 17.229 0.663086 16.002C0.663086 15.776 0.664086 15.55 0.666086 15.325V15.359V12.626C0.666086 10.226 0.693086 9.71899 0.746086 8.49299C0.813086 7.07999 1.03909 6.10599 1.35909 5.26599C1.70609 4.38599 2.15909 3.63899 2.90609 2.90599C3.55109 2.23899 4.34009 1.71599 5.22309 1.38699L5.26609 1.37299C6.22109 1.00199 7.32609 0.773992 8.48109 0.746992H8.49309C9.72009 0.693992 10.2261 0.666992 12.6261 0.666992H15.3601ZM15.3871 3.06699H12.6001C10.2931 3.06699 9.80009 3.09399 8.60009 3.14699C7.30709 3.19999 6.60009 3.41399 6.13309 3.59999C5.50609 3.83999 5.06609 4.13299 4.60009 4.59999C4.13409 5.06699 3.84009 5.50699 3.60009 6.13299C3.42709 6.59999 3.20009 7.30599 3.14709 8.61299C3.09409 9.81299 3.06709 10.293 3.06709 12.613V15.386C3.06709 17.706 3.09409 18.186 3.14709 19.386C3.20009 20.679 3.41409 21.386 3.60009 21.853C3.84009 22.48 4.13309 22.92 4.60009 23.386C5.06709 23.852 5.50709 24.146 6.13309 24.386C6.60009 24.573 7.30609 24.786 8.61309 24.839C9.90609 24.906 10.3731 24.919 13.2531 24.919H14.7331C17.6261 24.919 18.0801 24.906 19.3861 24.839C20.6791 24.786 21.3861 24.572 21.8531 24.386C22.4801 24.146 22.9201 23.853 23.3861 23.386C23.8521 22.919 24.1461 22.479 24.3861 21.853C24.5731 21.386 24.7861 20.68 24.8391 19.386C24.9061 18.079 24.9191 17.626 24.9191 14.733V13.266C24.9191 10.373 24.9061 9.90599 24.8391 8.59899C24.7861 7.30599 24.5721 6.59899 24.3861 6.13199C24.1601 5.53099 23.8191 5.01799 23.3871 4.59999L23.3861 4.59899C22.9661 4.16599 22.4541 3.82499 21.8811 3.60799L21.8531 3.59899C21.1211 3.32299 20.2751 3.15799 19.3911 3.14599H19.3861C18.3581 3.09399 17.1551 3.06399 15.9441 3.06399C15.7481 3.06399 15.5521 3.06499 15.3561 3.06599H15.3861L15.3871 3.06699ZM14.0001 7.14699C17.7811 7.14699 20.8471 10.212 20.8471 13.994C20.8471 17.776 17.7821 20.841 14.0001 20.841C10.2191 20.841 7.15309 17.776 7.15309 13.994C7.15309 10.212 10.2181 7.14699 14.0001 7.14699ZM14.0001 9.54699C11.5441 9.54699 9.55309 11.538 9.55309 13.994C9.55309 16.45 11.5441 18.441 14.0001 18.441C16.4561 18.441 18.4471 16.45 18.4471 13.994C18.4471 11.538 16.4561 9.54699 14.0001 9.54699ZM21.1071 5.27999C21.9911 5.27999 22.7071 5.99599 22.7071 6.87999C22.7071 7.76399 21.9911 8.47999 21.1071 8.47999C20.2231 8.47999 19.5071 7.76399 19.5071 6.87999C19.5071 5.99599 20.2231 5.27999 21.1071 5.27999Z" fill="#CCBA8D"/>
</svg>
