<svg width="28" height="28" viewBox="0 0 28 28" fill="none" xmlns="http://www.w3.org/2000/svg">
<path d="M14.0001 0.666992C6.65711 0.693992 0.714111 6.65299 0.714111 14C0.714111 19.599 4.16611 24.393 9.05711 26.368L9.14611 26.4C9.01311 25.347 8.91911 23.733 9.18611 22.573L10.7461 15.946C10.7461 15.946 10.3461 15.146 10.3461 13.973C10.3461 12.12 11.4261 10.746 12.7731 10.746C13.9061 10.746 14.4661 11.599 14.4661 12.613C14.4661 13.76 13.7331 15.466 13.3461 17.053C13.0261 18.386 14.0131 19.466 15.3331 19.466C17.7061 19.466 19.5201 16.973 19.5201 13.373C19.5201 10.173 17.2271 7.95999 13.9471 7.95999C13.8711 7.95599 13.7831 7.95399 13.6941 7.95399C10.5051 7.95399 7.92111 10.539 7.92111 13.727C7.92111 13.729 7.92111 13.731 7.92111 13.733C7.92111 14.88 8.36111 16.106 8.90811 16.773C9.01511 16.906 9.02811 17.026 8.98811 17.16L8.61511 18.667C8.56211 18.907 8.41511 18.974 8.17511 18.854C6.49511 18.067 5.45511 15.654 5.45511 13.681C5.45511 9.48099 8.52211 5.62799 14.2821 5.62799C18.8951 5.62799 22.5091 8.90799 22.5091 13.321C22.5091 17.921 19.6021 21.614 15.5761 21.614C14.2431 21.614 12.9631 20.907 12.5361 20.081L11.6961 23.241C11.2651 24.578 10.7041 25.739 10.0081 26.804L10.0421 26.748C11.2121 27.12 12.5581 27.335 13.9531 27.335C21.3171 27.335 27.2861 21.365 27.2861 14.002C27.2861 6.65499 21.3441 0.695992 14.0041 0.668992H14.0011L14.0001 0.666992Z" fill="#CCBA8D"/>
</svg>
