<svg width="71" height="50" viewBox="0 0 71 50" fill="none" xmlns="http://www.w3.org/2000/svg">
<path d="M41.6461 16.7727H39.0396L34.3521 34.1875H36.9586L41.6461 16.7727Z" fill="white"/>
<path d="M6.48171 32.2131C9.18058 32.2131 10.9988 30.8991 11.4249 28.875L8.6266 28.6903C8.3212 29.5213 7.53995 29.9545 6.53143 29.9545C5.01864 29.9545 4.05984 28.9531 4.05984 27.3267V27.3196H11.4888V26.4886C11.4888 22.7812 9.2445 20.9489 6.36097 20.9489C3.15075 20.9489 1.06978 23.2287 1.06978 26.5952C1.06978 30.054 3.12234 32.2131 6.48171 32.2131ZM4.05984 25.4446C4.12376 24.2017 5.06836 23.2074 6.41069 23.2074C7.72461 23.2074 8.6337 24.1449 8.6408 25.4446H4.05984ZM16.4888 25.6932C16.4959 24.2869 17.334 23.4631 18.5556 23.4631C19.7701 23.4631 20.5016 24.2585 20.4945 25.5938V32H23.5201V25.054C23.5201 22.5114 22.0286 20.9489 19.7559 20.9489C18.1365 20.9489 16.9647 21.7443 16.4746 23.0156H16.3468V21.0909H13.4632V32H16.4888V25.6932Z" fill="#BDAE82"/>
<path d="M51.8949 32H54.9205V25.8281C54.9205 24.4858 55.9006 23.5625 57.2358 23.5625C57.6548 23.5625 58.2301 23.6335 58.5142 23.7259V21.0412C58.2443 20.9773 57.8679 20.9347 57.5625 20.9347C56.3409 20.9347 55.3395 21.6449 54.9418 22.9943H54.8281V21.0909H51.8949V32ZM67.0742 27.3551C67.0813 28.8182 66.0799 29.5852 64.9933 29.5852C63.8498 29.5852 63.1112 28.7827 63.104 27.4972V21.0909H60.0785V28.0369C60.0856 30.5866 61.5771 32.142 63.7717 32.142C65.4123 32.142 66.5913 31.2969 67.0813 30.0185H67.195V32H70.0998V21.0909H67.0742V27.3551Z" fill="white"/>
</svg>
