<svg width="28" height="22" viewBox="0 0 28 22" fill="none" xmlns="http://www.w3.org/2000/svg">
<path d="M27.333 2.83998C26.333 3.33298 25.333 3.50698 24.16 3.66698C25.333 2.99998 26.16 1.99998 26.493 0.666984C25.488 1.27498 24.317 1.73798 23.07 1.98898L23 2.00098C21.969 0.986984 20.56 0.354984 19.004 0.333984H19C16.16 0.333984 13.667 2.84098 13.667 5.84098C13.667 6.33398 13.667 6.66798 13.84 7.00098C9.262 6.82298 5.221 4.66398 2.529 1.36198L2.507 1.33398C2.082 2.05998 1.831 2.93198 1.831 3.86298C1.831 3.97198 1.834 4.08098 1.841 4.18898L1.84 4.17398C1.874 6.05198 2.849 7.69498 4.313 8.65498L4.334 8.66798C3.494 8.66798 2.667 8.33498 1.827 8.00098C1.827 10.668 3.667 12.841 6.16 13.334C5.667 13.507 5.16 13.507 4.667 13.507C4.334 13.507 4 13.507 3.667 13.334C4.334 15.507 6.334 17.174 8.84 17.174C7.04 18.629 4.724 19.509 2.203 19.509C2.132 19.509 2.061 19.508 1.99 19.507H2.001H0.667999C3.033 21.016 5.904 21.936 8.984 22H9.001C19.001 22 24.508 13.667 24.508 6.49298V5.82598C25.655 5.03598 26.601 4.03898 27.311 2.88198L27.335 2.83998H27.333Z" fill="white"/>
</svg>
