<svg width="60" height="50" viewBox="0 0 60 50" fill="none" xmlns="http://www.w3.org/2000/svg">
<path d="M59.843 1.30708V48.7811C59.465 49.5351 58.698 50.0431 57.812 50.0431C57.748 50.0431 57.685 50.0401 57.622 50.0351L57.63 50.0361H2.194C2.128 50.0441 2.051 50.0481 1.973 50.0481C0.876 50.0481 -0.0130005 49.1591 -0.0130005 48.0621C-0.0130005 47.9841 -0.00900049 47.9071 -4.88788e-07 47.8311L-0.00100049 47.8401C-0.00100049 32.6134 -0.00100049 17.3871 -0.00100049 2.16108C-0.00600049 2.10608 -0.0100005 2.04208 -0.0100005 1.97708C-0.0100005 0.880084 0.878999 -0.00891601 1.976 -0.00891601C2.047 -0.00891601 2.116 -0.00491601 2.185 0.00208399L2.176 0.00108399C20.666 0.00108399 39.1447 0.00108399 57.612 0.00108399C57.687 -0.00791601 57.774 -0.013916 57.863 -0.013916C58.75 -0.013916 59.511 0.525084 59.837 1.29308L59.843 1.30708ZM22.544 24.9831V30.5751C22.545 30.9411 22.596 31.2951 22.69 31.6311L22.683 31.6031C23.038 32.5031 23.901 33.1281 24.909 33.1281C25.419 33.1281 25.892 32.9681 26.28 32.6951L26.272 32.7001C29.6 30.7841 32.892 28.8501 36.185 26.8991C36.865 26.5311 37.318 25.8231 37.318 25.0091C37.318 24.1951 36.864 23.4871 36.196 23.1241L36.185 23.1181C32.892 21.0971 29.513 19.1631 26.133 17.2121C25.78 16.9921 25.351 16.8611 24.892 16.8611C23.583 16.8611 22.523 17.9221 22.523 19.2301C22.523 19.2801 22.525 19.3301 22.528 19.3791V19.3721C22.65 21.2361 22.545 23.1181 22.545 24.9821L22.544 24.9831ZM9.443 6.55108V3.57208H3.572V6.55108H9.443ZM3.484 46.3761H9.442V43.4491H3.484V46.3761ZM18.833 3.57108H13.066V6.53308H18.833V3.57108ZM22.456 3.57108V6.53308H28.24V3.48408L22.456 3.57108ZM37.613 6.55108V3.57208H31.846V6.53408L37.613 6.55108ZM47.038 3.57108H41.219V6.53308H47.038V3.57108ZM37.631 46.3941V43.5541H31.847V46.4811L37.631 46.3941ZM18.815 46.3941V43.5541H13.048V46.4811L18.815 46.3941ZM28.24 46.3941V43.5541H22.473V46.4981L28.24 46.3941ZM47.038 43.4491H41.219V46.3761H47.038V43.4491ZM56.289 6.55108V3.48508H50.627V6.55108H56.289ZM56.289 43.4491H50.627V46.3931H56.306L56.289 43.4491Z" fill="#BDAE82"/>
</svg>
